<svg width="39" height="40" viewBox="0 0 48 49" fill="none" xmlns="http://www.w3.org/2000/svg">
<path d="M47.5 24.5C47.5 37.4787 36.9787 48 24 48C11.0213 48 0.5 37.4787 0.5 24.5C0.5 11.5213 11.0213 1 24 1C36.9787 1 47.5 11.5213 47.5 24.5Z" fill="#E3E4EB" stroke="#C7C8D9"/>
<path d="M22.6303 16.936C22.8543 16.8507 23.169 16.808 23.5743 16.808C23.9796 16.808 24.3423 16.8347 24.6623 16.888C24.3316 19.3413 24.0703 21.5653 23.8783 23.56C23.697 25.544 23.5956 26.5893 23.5743 26.696C23.5636 26.8027 23.5583 26.8987 23.5583 26.984C23.569 27.2613 23.7023 27.4 23.9583 27.4C24.5983 27.4 25.489 26.664 26.6303 25.192C26.833 25.7573 26.9503 26.136 26.9823 26.328C26.4703 27.1387 25.8516 27.8053 25.1263 28.328C24.4116 28.84 23.7343 29.096 23.0943 29.096C22.4543 29.096 22.0116 28.9307 21.7663 28.6C21.521 28.2693 21.3983 27.9013 21.3983 27.496C21.3983 27.4 21.409 27.2133 21.4303 26.936C21.4623 26.6587 21.6756 24.9307 22.0703 21.752L19.4463 27.816H18.0863L17.3023 21.848L16.1823 26.808C16.001 27.5973 15.7023 28.1787 15.2863 28.552C14.881 28.9253 14.433 29.112 13.9423 29.112C13.4516 29.112 13.0516 28.968 12.7423 28.68C12.4116 28.3707 12.2463 27.9333 12.2463 27.368C12.2463 26.2373 13.121 25.272 14.8703 24.472C15.8196 19.9173 16.3316 17.3947 16.4063 16.904C16.6623 16.84 17.0036 16.808 17.4303 16.808C17.8676 16.808 18.1663 16.8187 18.3263 16.84H18.4383L19.4303 24.28L22.6303 17.016V16.936ZM13.3823 27.096C13.3823 27.4373 13.5156 27.608 13.7823 27.608C13.9636 27.608 14.113 27.464 14.2303 27.176C14.3796 26.824 14.5023 26.36 14.5983 25.784C13.7876 26.2427 13.3823 26.68 13.3823 27.096ZM25.3274 20.28C25.3274 19.256 25.7808 18.424 26.6874 17.784C27.5941 17.144 28.8048 16.824 30.3194 16.824C31.2261 16.824 32.0208 16.9307 32.7034 17.144C33.3861 17.3467 33.9088 17.6293 34.2714 17.992C34.9968 18.7067 35.3594 19.528 35.3594 20.456C35.3594 21.384 34.9861 22.1627 34.2394 22.792C33.5034 23.4107 32.5594 23.72 31.4074 23.72C31.2794 23.72 31.0874 23.7093 30.8314 23.688L30.9754 22.52C32.3941 22.52 33.1034 21.8533 33.1034 20.52C33.1034 19.9013 32.8421 19.3787 32.3194 18.952C31.7754 18.504 30.9648 18.28 29.8874 18.28C28.8101 18.28 27.9568 18.5573 27.3274 19.112C26.9541 19.432 26.7674 19.7787 26.7674 20.152C26.7674 20.856 27.1888 21.256 28.0314 21.352L27.8394 22.536C27.1034 22.504 26.5008 22.2693 26.0314 21.832C25.5621 21.3947 25.3274 20.8773 25.3274 20.28ZM30.9594 19.112L30.2554 23.688C31.6101 24.3387 32.2874 25.2987 32.2874 26.568C32.2874 27.496 32.0421 28.152 31.5514 28.536C31.0714 28.9093 30.4901 29.096 29.8074 29.096C29.1248 29.096 28.5914 28.92 28.2074 28.568C27.8234 28.216 27.6314 27.7413 27.6314 27.144C27.6314 27.0053 27.6368 26.8987 27.6474 26.824L28.6074 19.416C29.1621 19.1493 29.6314 19.016 30.0154 19.016C30.3994 19.016 30.7141 19.048 30.9594 19.112ZM30.2714 27.64C30.5274 27.64 30.7461 27.5493 30.9274 27.368C31.1194 27.1867 31.2154 26.8827 31.2154 26.456C31.2154 25.6987 30.8528 25.1013 30.1274 24.664C29.9568 25.912 29.8714 26.664 29.8714 26.92C29.8714 27.1653 29.9088 27.3467 29.9834 27.464C30.0688 27.5813 30.1648 27.64 30.2714 27.64Z" fill="#002754"/>
</svg>
